<svg width="612" height="808" viewBox="0 0 612 808" fill="none" xmlns="http://www.w3.org/2000/svg">
<path d="M242.516 411.306L260.194 428.984L233.678 455.5L260.194 482.016L242.516 499.694L216 473.178L189.483 499.694L171.806 482.017L198.322 455.5L171.806 428.983L189.483 411.306L216 437.822L242.516 411.306Z" fill="#300097"/>
<path d="M428.711 412L446.388 429.678L419.872 456.194L446.388 482.711L428.711 500.388L402.194 473.872L375.678 500.388L358 482.711L384.517 456.194L358 429.678L375.678 412L402.194 438.517L428.711 412Z" fill="#300097"/>
<path fill-rule="evenodd" clip-rule="evenodd" d="M403 42.5C403 63.7625 387.386 81.3782 366.998 84.5063L353.224 138.89C442.55 177.791 505 266.852 505 370.5C505 509.952 391.952 623 252.5 623C209.056 623 168.175 612.028 132.475 592.705L65 808H0V370.5C0 231.048 113.048 118 252.5 118C276.253 118 299.239 121.28 321.032 127.411L334 75.7285C324.248 67.941 318 55.9502 318 42.5C318 19.0279 337.028 0 360.5 0C383.972 0 403 19.0279 403 42.5ZM440 370.5C440 474.053 356.053 558 252.5 558C209.675 558.017 178.01 549.419 150.262 535.952C131.694 526.941 114.879 515.749 97.6482 503.5L81.3582 556.154L65 609.029V539.618V370.5C65 317.941 86.6256 270.433 121.464 236.388C159.032 299.056 227.618 341 306 341C351.135 341 393.022 327.092 427.609 303.327C435.613 324.181 440 346.828 440 370.5Z" fill="#300097"/>
<path fill-rule="evenodd" clip-rule="evenodd" d="M295.385 619.482C191.895 619.482 108 535.428 108 431.741C108 328.055 191.895 244 295.385 244C398.874 244 482.769 328.055 482.769 431.741C482.769 480.536 464.189 524.984 433.731 558.369L442.449 571.576L455.631 575.46L596.246 730.205C605.876 738.28 612 750.412 612 763.978C612 788.291 592.328 808 568.062 808C550.963 808 536.145 798.214 528.883 783.927L402.905 616.375V602.65L392.566 592.293C364.231 609.546 330.966 619.482 295.385 619.482ZM295.385 575.46C374.608 575.46 438.831 511.115 438.831 431.741C438.831 352.367 374.608 288.022 295.385 288.022C216.161 288.022 151.938 352.367 151.938 431.741C151.938 511.115 216.161 575.46 295.385 575.46Z" fill="#0E88D3"/>
</svg>
